<svg height="512pt" viewBox="0 0 512.00043 512" width="512pt" xmlns="http://www.w3.org/2000/svg"><path d="m246 196c0 5.523438-4.476562 10-10 10s-10-4.476562-10-10 4.476562-10 10-10 10 4.476562 10 10zm0 0"/><path d="m166 196c0 5.523438-4.476562 10-10 10s-10-4.476562-10-10 4.476562-10 10-10 10 4.476562 10 10zm0 0"/><path d="m169.269531 248.738281c8.40625 3.957031 17.402344 5.960938 26.730469 5.960938 9.132812 0 17.953125-1.925781 26.21875-5.722657 5.015625-2.308593 7.214844-8.246093 4.90625-13.265624-2.304688-5.015626-8.246094-7.214844-13.261719-4.90625-5.625 2.582031-11.632812 3.894531-17.863281 3.894531-6.363281 0-12.488281-1.367188-18.210938-4.058594-5-2.351563-10.953124-.207031-13.308593 4.789063-2.351563 5-.207031 10.957031 4.789062 13.308593zm0 0"/><path d="m132.027344 320.007812c-1.457032 1.941407-2.832032 3.960938-4.117188 6.046876-59.863281-9.839844-127.910156 31.4375-127.910156 99.945312v76c0 5.523438 4.476562 10 10 10h472c5.523438 0 10-4.476562 10-10s-4.476562-10-10-10h-50v-132.492188l77.808594-97.261718c2.402344-3 2.871094-7.113282 1.203125-10.578125-1.664063-3.464844-5.167969-5.667969-9.011719-5.667969h-35.855469l39.496094-39.5c3.90625-3.902344 3.90625-10.234375 0-14.140625-3.902344-3.90625-10.234375-3.90625-14.140625 0l-53.644531 53.640625h-95.855469c-3.84375 0-7.347656 2.203125-9.011719 5.667969-1.667969 3.464843-1.199219 7.578125 1.203125 10.578125l77.808594 97.261718v132.492188h-20v-36c0-5.523438-4.476562-10-10-10s-10 4.476562-10 10v36h-46v-76c0-5.523438-4.476562-10-10-10s-10 4.476562-10 10v76h-100.003906l-.015625-95.730469c2.335937-.828125 4.5625-1.941406 6.628906-3.3125l33.371094 25.023438c4.402343 3.300781 10.667969 2.429687 13.992187-1.988281 10.484375-13.941407 16.027344-30.539063 16.027344-47.992188 0-7.871094-1.121094-15.535156-3.332031-22.910156 33.214843-3.335938 68.996093 12.25 86.867187 39.042968 3.078125 4.609376 9.289063 5.824219 13.871094 2.769532 4.59375-3.066406 5.832031-9.273438 2.769531-13.871094-23.476562-35.191406-69.976562-53.84375-112.082031-46.976562-1.285156-2.082032-2.660156-4.105469-4.121094-6.046876-3.3125-4.402343-9.558594-5.296874-13.972656-2.003906v-27.164062c16.191406-10.84375 28.386719-26.542969 34.859375-44.839844h5.140625c22.054688 0 40-17.945312 40-40s-17.945312-40-40-40v-26.0625c23.851562-26.941406 27.792969-72.210938 8.335938-103.144531-.144532-.226563-.300782-.449219-.460938-.667969-.050781-.066406-5.128906-6.859375-10.140625-14.820312l-10.460937-16.628907c-2.054688-3.269531-5.789063-5.058593-9.640626-4.6054685-3.832031.4531255-7.0625 3.0703125-8.296874 6.7265625-1.074219 3.175781-2.722657 8.804687-5.039063 17.21875-1.484375 5.402344-7.226563 5.984375-9.625 5.984375h-64.671875c-18.96875 0-34.894531 13.273438-38.984375 31.015625-17.742187 4.089844-31.015625 20.015625-31.015625 38.984375v66c-22.054688 0-40 17.945312-40 40s17.945312 40 40 40h5.15625c6.453125 18.179688 18.757812 34.019531 34.84375 44.8125v27.191406c-4.414062-3.292968-10.660156-2.398437-13.972656 2.003906zm349.164062-54.007812-59.191406 73.992188-59.191406-73.992188zm-285.191406 40c10.257812 0 20.40625-1.765625 30-5.148438v32.152344l-13.390625 10.039063c-4.875-3.234375-10.65625-5.042969-16.609375-5.042969s-11.734375 1.808594-16.609375 5.042969l-13.390625-10.042969v-32.148438c9.59375 3.382813 19.742188 5.148438 30 5.148438zm-53.324219 34.511719 24.699219 18.519531c-.898438 2.871094-1.375 5.882812-1.375 8.96875s.476562 6.097656 1.375 8.96875l-24.703125 18.523438c-4.386719-8.441407-6.671875-17.789063-6.671875-27.492188 0-9.4375 2.136719-18.742188 6.675781-27.488281zm63.324219 27.488281c0 5.453125-4.394531 10-10.003906 10-5.636719-.007812-9.996094-4.578125-9.996094-10s4.363281-10 10-10c5.597656 0 10 4.542969 10 10zm-126 124v-76c0-5.523438-4.476562-10-10-10s-10 4.476562-10 10v76h-40v-66c0-52.460938 50.945312-85.632812 99.328125-80.898438-2.207031 7.371094-3.328125 15.03125-3.328125 22.898438 0 17.453125 5.542969 34.050781 16.027344 47.992188 3.320312 4.414062 9.582031 5.292968 13.09375 1.988281l33.339844-25c2.960937 1.378906 4.28125 2.488281 6.621093 3.3125l.019531 95.707031zm169.332031-96.507812-24.707031-18.523438c.898438-2.875 1.375-5.882812 1.375-8.96875s-.476562-6.097656-1.378906-8.96875l24.699218-18.519531c4.402344 8.46875 6.679688 17.75 6.679688 27.488281 0 9.703125-2.285156 19.050781-6.667969 27.492188zm56.667969-189.492188c0 11.027344-8.972656 20-20 20h-.5625c.367188-3.316406.5625-6.65625.5625-10v-30c11.027344 0 20 8.972656 20 20zm-180-106c0-11.027344 8.972656-20 20-20 5.523438 0 10-4.476562 10-10 0-11.027344 8.972656-20 20-20h64.671875c12.371094 0 22.617187-6.242188 27.28125-16.242188 4.425781 6.882813 8.570313 12.546876 9.648437 14.003907 14.335938 23.144531 11.445313 57.890625-5.964843 78.238281h-115.636719c-2.652344 0-5.195312 1.054688-7.070312 2.929688l-22.929688 22.929687zm-40 106c0-11.027344 8.972656-20 20-20v30c0 3.34375.195312 6.683594.566406 10h-.566406c-11.027344 0-20-8.972656-20-20zm40 10v-35.855469l34.140625-34.144531h105.859375v70c0 38.53125-31.210938 70-70 70-38.835938 0-70-31.558594-70-70zm0 0"/><path d="m236 452c-5.523438 0-10 4.476562-10 10s4.476562 10 10 10h40c5.523438 0 10-4.476562 10-10s-4.476562-10-10-10zm0 0"/><path d="m392 416c0 5.523438-4.476562 10-10 10s-10-4.476562-10-10 4.476562-10 10-10 10 4.476562 10 10zm0 0"/></svg>