<svg id="Layer_1" data-name="Layer 1" xmlns="http://www.w3.org/2000/svg" viewBox="0 0 151.2 218.52"><path d="M144.12,96.71c-1,6.42-1.65,10.9-5,15.66-1.42,2-5.71,8.21-10.33,7.64-1.86-.23-3.61-1.56-4.59-.74s-.48,2.46-.35,3c.3,1.67-.56,6.08-2.3,14.89-1.3,6.44-5.81,13-12.77,21.86-1.48,1.91-3.1,3.9-4.8,6-12.67,15.75-17.47,18-21.76,18.71a23.61,23.61,0,0,1-9.18-.37c-6.42-1.4-10.69-4.77-23.3-18-.51-.53-1-1-1.48-1.56C38.83,154,34,148.72,31.83,144.06c-3.51-7.63-6.4-13.95-4.86-19.07.18-.63,1-3.1-.11-4.23-.92-.92-2.46-.22-5-.36a17.38,17.38,0,0,1-6.11-1.91c-4.13-2.14-5.54-7.23-7.25-13.37-1.89-6.83-3.32-12-1.15-18,.8-2.2,1.89-6.81,5-7.64a3.83,3.83,0,0,1,2.4.19,105.76,105.76,0,0,0,2.57,11.84A49.07,49.07,0,0,1,19,97c.39,2,.35,3,1.13,3.45,1.13.68,3.24-.08,4-1.43s0-3.35-.3-4c-.7-1.68-.66-6.85-.56-17.22.06-7.49.12-12.11,1.15-18.33,1.11-6.69,1.79-10.86,4.58-15.75,1.5-2.62,5.21-9,12.6-12.31,3.88-1.77,7.33-1.87,14-2A102.35,102.35,0,0,1,79.76,32a97.84,97.84,0,0,1,17.47,4.87c5.93,2.32,9.77,4.55,15.75,8,8,4.64,12,7,13.46,10.31,1.11,2.52.35,3.14.29,13.46,0,7.35.33,7.68.29,14.89,0,6.55-.08,9.81-.33,10.61-.35,1.07-1,2.55-.25,3.72.82,1.39,3.25,2,4.29,1.15s.43-2.06.58-4.29c.2-2.92,1.23-4.71,2-6.59A58.46,58.46,0,0,0,136.11,78a4.27,4.27,0,0,1,1.13,0c3.43.41,5.6,4.08,6.1,5C145.55,86.73,145,90.57,144.12,96.71Z" fill="none" stroke="#eeb94f" stroke-miterlimit="10" stroke-width="2"/><path d="M137.61,70.08c-.49,2.69-1,5.4-1.5,7.93a58.46,58.46,0,0,1-2.79,10.12c-.78,1.88-1.81,3.67-2,6.59-.15,2.23.31,3.59-.58,4.29s-3.47.24-4.29-1.15c-.7-1.17-.1-2.65.25-3.72.25-.8.29-4.06.33-10.61,0-7.21-.33-7.54-.29-14.89.06-10.32.82-10.94-.29-13.46C125,51.89,121,49.51,113,44.87c-6-3.47-9.82-5.7-15.75-8A97.84,97.84,0,0,0,79.76,32,102.35,102.35,0,0,0,55.7,29.4c-6.71.14-10.16.24-14,2-7.39,3.34-11.1,9.69-12.6,12.31-2.79,4.89-3.47,9.06-4.58,15.75-1,6.22-1.09,10.84-1.15,18.33-.1,10.37-.14,15.54.56,17.22.26.64,1.12,2.53.3,4s-2.89,2.11-4,1.43C19.39,100,19.43,99,19,97a49.07,49.07,0,0,0-1.72-5.44,105.76,105.76,0,0,1-2.57-11.84c-.37-2.3-.59-3.9-.59-3.9-2.63-19.52-3.84-23.4-2.57-30.94.62-3.73,1.91-8.66,5.15-9.75,2-.63,3.47.48,4.58-.57,1.6-1.46-.49-4.68-.29-9.16a17.2,17.2,0,0,1,3.45-8.89c3.1-4.61,8.21-7.18,17.18-9.44A115.75,115.75,0,0,1,74.9,3.9c9.79.39,18.47.74,29.5,4.31,8.54,2.75,16.52,5.34,23.77,12.89a44.11,44.11,0,0,1,11.16,21.47C141.1,50.93,139.89,57.52,137.61,70.08Z" fill="none" stroke="#eeb94f" stroke-miterlimit="10" stroke-width="2"/><path d="M93.52,211.58c-18.25,7.57-35.43-.8-36.69-1.44C43.57,203.41,34.5,189.74,36.51,187c.35-.52.8-.15,3.43-1.15,3.63-1.4,7.1-2.43,7.45-4.87a75.59,75.59,0,0,0,.9-17c.48.52,1,1,1.48,1.56,12.61,13.2,16.88,16.57,23.3,18a23.61,23.61,0,0,0,9.18.37c4.29-.74,9.09-3,21.76-18.71,1.7-2.13,3.32-4.12,4.8-6-.53,10.57-6.77,23.32-3,25.31,1.46.78,4.19-.21,7.15,2a7.86,7.86,0,0,1,2.3,2.57C117.31,193.43,106.8,206.06,93.52,211.58Z" fill="none" stroke="#eeb94f" stroke-miterlimit="10" stroke-width="2"/></svg>