<svg id="Layer_1" data-name="Layer 1" xmlns="http://www.w3.org/2000/svg" viewBox="0 0 151.2 218.52"><path d="M138.52,86.6a84.31,84.31,0,0,1-2.72,21.9c-3.5,13.19-10.18,23.85-18.67,33.83-5.2,6.1-11,12.25-17.42,17-7.14,5.35-15,9-23.35,9-9.62,0-17.37-3.5-24.46-9.11a99.15,99.15,0,0,1-12.54-12.31c-9.08-10.29-17.54-23.21-22-38.3a77.9,77.9,0,0,1-3.2-22,107.67,107.67,0,0,1,1.27-16.53C21.28,32.84,46.33,4.84,76.36,4.84S131.6,33,137.3,70.43A106.9,106.9,0,0,1,138.52,86.6Z" fill="#eeb94f"/><path d="M148.71,89.3c0,9.9-5.63,18-12.91,19.2a84.31,84.31,0,0,0,2.72-21.9,106.9,106.9,0,0,0-1.22-16.17C143.84,72.39,148.71,80.09,148.71,89.3Z" fill="#eeb94f"/><path d="M17.4,108.64h-.24C9.05,108.65,2.47,100,2.47,89.3c0-9.94,5.68-18.13,13-19.23A107.67,107.67,0,0,0,14.2,86.6,77.9,77.9,0,0,0,17.4,108.64Z" fill="#eeb94f"/><path d="M108.25,201.89c-4,18-59.74,16.6-63.81-5.18-1-5.44,1.88-8.67,4.67-20a107.32,107.32,0,0,0,2.79-17.51c7.09,5.61,14.84,9.11,24.46,9.11,8.39,0,16.21-3.65,23.35-9a77.8,77.8,0,0,0,2.31,22C105.62,195.51,109.5,196.33,108.25,201.89Z" fill="#eeb94f"/></svg>