<svg id="Layer_1" data-name="Layer 1" xmlns="http://www.w3.org/2000/svg" viewBox="0 0 151.2 218.52"><path d="M132.7,97.33a78.31,78.31,0,0,1-2.47,20.13c-3.18,12.13-9.24,21.93-16.94,31.1a102.21,102.21,0,0,1-15.81,15.66c-6.48,4.91-13.57,8.28-21.19,8.28-8.73,0-15.76-3.23-22.19-8.38A89.89,89.89,0,0,1,42.72,152.8c-8.24-9.46-15.92-21.34-19.93-35.21a72.56,72.56,0,0,1-2.9-20.26A100.66,100.66,0,0,1,21,82.13c.07-.46.15-.93.23-1.4a7.12,7.12,0,0,0,3.6-.36c.73-.22,1.61-.44,2.59-.67,19.6-4.51,85.33-9.53,99.8,0a5.81,5.81,0,0,1,.57.4,9,9,0,0,0,3.7,1.93l.06.39A99,99,0,0,1,132.7,97.33Z" fill="none" stroke="#eeb94f" stroke-miterlimit="10" stroke-width="2.01"/><path d="M142,99.81c0,9.1-5.11,16.59-11.72,17.65a78.37,78.37,0,0,0,2.47-20.13,99,99,0,0,0-1.11-14.87C137.53,84.26,142,91.34,142,99.81Z" fill="none" stroke="#eeb94f" stroke-miterlimit="10" stroke-width="2.01"/><path d="M22.8,117.59h-.22c-7.36,0-13.33-8-13.33-17.79,0-9.14,5.15-16.67,11.79-17.68a100.66,100.66,0,0,0-1.15,15.2A72.19,72.19,0,0,0,22.8,117.59Z" fill="none" stroke="#eeb94f" stroke-miterlimit="10" stroke-width="2.01"/><path d="M105.23,203.32c-3.67,16.52-54.2,15.26-57.9-4.77-.92-5,1.71-8,4.24-18.34a100.28,100.28,0,0,0,2.53-16.09c6.44,5.15,13.47,8.37,22.2,8.37,7.61,0,14.71-3.36,21.18-8.27a72.41,72.41,0,0,0,2.1,20.22C102.85,197.45,106.37,198.2,105.23,203.32Z" fill="none" stroke="#eeb94f" stroke-miterlimit="10" stroke-width="2.01"/><path d="M134.6,80.37a2.75,2.75,0,0,1-3.07,1.7,9,9,0,0,1-3.7-1.93,5.81,5.81,0,0,0-.57-.4c-14.47-9.57-80.2-4.55-99.8,0-1,.23-1.86.45-2.59.67a7.12,7.12,0,0,1-3.6.36c-1.28-.26-2.59-1.13-3.49-3.28-1.94-4.67-1.56-14.58.67-18.28a3.43,3.43,0,0,1,2.68-1.77,3.63,3.63,0,0,1,2.56.56,8.51,8.51,0,0,1,1.51,1.21,9.81,9.81,0,0,0,2,1.12c16.61,7.2,72.67-9.24,97.06-2.5a21.31,21.31,0,0,1,5.5,2.25,11.39,11.39,0,0,1,5.86,8.64C135.91,70.91,136.19,77.36,134.6,80.37Z" fill="none" stroke="#eeb94f" stroke-miterlimit="10" stroke-width="2.01"/><path d="M129.76,60a21.31,21.31,0,0,0-5.5-2.25c-24.39-6.74-80.45,9.7-97.06,2.5a9.81,9.81,0,0,1-2-1.12A8.51,8.51,0,0,0,23.69,58a94.08,94.08,0,0,1,3.88-13A73.63,73.63,0,0,1,42.43,20.85a62.63,62.63,0,0,1,11.81-9.57A48,48,0,0,1,65.38,5.47a34.82,34.82,0,0,1,18.23-.84C98.9,7.47,108.83,18.18,112,21.68a69.48,69.48,0,0,1,12.16,19.13,90.43,90.43,0,0,1,4.73,15.38C129.17,57.5,129.47,58.79,129.76,60Z" fill="none" stroke="#eeb94f" stroke-miterlimit="10" stroke-width="2.01"/></svg>