<svg id="Layer_1" data-name="Layer 1" xmlns="http://www.w3.org/2000/svg" viewBox="0 0 151.2 218.52"><path d="M138.52,86.59a84.47,84.47,0,0,1-2.72,21.92c-3.51,13.18-10.18,23.84-18.67,33.81-5.2,6.1-11,12.25-17.42,17-7.14,5.35-15,9-23.35,9-9.62,0-17.37-3.5-24.46-9.11a98.48,98.48,0,0,1-12.54-12.31c-9.08-10.28-17.54-23.2-22-38.29a78.28,78.28,0,0,1-3.2-22,107.67,107.67,0,0,1,1.27-16.53C21.29,32.83,46.34,4.83,76.36,4.83S131.6,33,137.3,70.42A106.8,106.8,0,0,1,138.52,86.59Z" fill="none" stroke="#eeb94f" stroke-miterlimit="10" stroke-width="2"/><path d="M148.71,89.29c0,9.9-5.63,18.06-12.91,19.22a84.47,84.47,0,0,0,2.72-21.92,106.8,106.8,0,0,0-1.22-16.17C143.84,72.38,148.71,80.09,148.71,89.29Z" fill="none" stroke="#eeb94f" stroke-miterlimit="10" stroke-width="2"/><path d="M17.4,108.64h-.24c-8.11,0-14.69-8.67-14.69-19.36,0-9.93,5.68-18.13,13-19.23A107.67,107.67,0,0,0,14.2,86.59,78.28,78.28,0,0,0,17.4,108.64Z" fill="none" stroke="#eeb94f" stroke-miterlimit="10" stroke-width="2"/><path d="M108.25,201.88c-4,18-59.74,16.6-63.81-5.18-1-5.43,1.88-8.67,4.67-19.95a107.32,107.32,0,0,0,2.79-17.51c7.09,5.61,14.84,9.11,24.46,9.11,8.39,0,16.21-3.65,23.35-9a77.87,77.87,0,0,0,2.31,22C105.62,195.51,109.5,196.32,108.25,201.88Z" fill="none" stroke="#eeb94f" stroke-miterlimit="10" stroke-width="2"/></svg>