<svg width="146" height="160" viewBox="0 0 146 160" fill="none" xmlns="http://www.w3.org/2000/svg">
    <path
        d="M133.213 51.8454C124.448 46.9173 112.569 47.5964 103.414 53.1676V49.1489C104.951 47.7866 106.175 46.1072 107.001 44.2265C107.827 42.3458 108.235 40.3084 108.198 38.2547C108.161 36.2009 107.68 34.1795 106.787 32.3297C105.894 30.4799 104.61 28.8457 103.025 27.5394C102.977 25.3015 102.465 23.0978 101.522 21.0677C100.579 19.0377 99.2248 17.2254 97.5453 15.7454C95.8659 14.2655 93.8976 13.1501 91.765 12.4698C89.6324 11.7895 87.3818 11.5591 85.1556 11.7931C84.3739 10.2218 83.288 8.82135 81.9611 7.67284C80.6341 6.52434 79.0923 5.65064 77.4252 5.1024C75.758 4.55416 73.9986 4.34228 72.249 4.47903C70.4993 4.61579 68.7942 5.09847 67.2325 5.8991C65.5843 4.04407 63.5617 2.55928 61.2981 1.54249C59.0345 0.525704 56.5811 0 54.0996 0C51.6181 0 49.1648 0.525704 46.9011 1.54249C44.6375 2.55928 42.615 4.04407 40.9667 5.8991C39.405 5.09847 37.6999 4.61579 35.9503 4.47903C34.2006 4.34228 32.4412 4.55416 30.7741 5.1024C29.1069 5.65064 27.5652 6.52434 26.2382 7.67284C24.9112 8.82135 23.8254 10.2218 23.0436 11.7931C20.8174 11.5589 18.5667 11.7892 16.4341 12.4694C14.3014 13.1496 12.333 14.265 10.6535 15.745C8.97398 17.2249 7.61983 19.0373 6.67668 21.0675C5.73352 23.0976 5.22189 25.3014 5.17413 27.5394C3.58925 28.8459 2.30626 30.4803 1.41345 32.3301C0.520644 34.1798 0.0392145 36.2011 0.00229702 38.2547C-0.0346204 40.3083 0.37385 42.3456 1.1996 44.2262C2.02535 46.1069 3.24877 47.7863 4.78566 49.1489V151.546C4.78779 153.588 5.59997 155.546 7.04399 156.99C8.488 158.434 10.4459 159.247 12.488 159.249H95.7112C97.7534 159.247 99.7113 158.434 101.155 156.99C102.599 155.546 103.411 153.588 103.414 151.546V131.748C115.404 127.487 139.967 115.093 144.886 84.1418C148.152 63.5906 138.974 55.0858 133.213 51.8454ZM103.414 84.0052C105.324 73.4925 109.917 68.7907 113.447 66.7037C114.991 65.7383 116.721 65.1083 118.524 64.8544C120.327 64.6006 122.163 64.7286 123.914 65.2302C129.998 67.2944 130.044 75.2767 129.012 81.6074C126.426 97.4676 118.384 105.956 112.283 108.406C110.88 109.044 109.347 109.345 107.807 109.285C106.267 109.225 104.763 108.806 103.414 108.061V84.0052ZM8.87663 30.615C9.20982 30.3872 9.47859 30.0773 9.65693 29.7152C9.83528 29.3531 9.91717 28.9511 9.89468 28.5481L9.87861 28.2909C9.86923 28.157 9.85851 28.0351 9.85851 27.9065C9.85285 26.171 10.2407 24.4567 10.9929 22.8927C11.7452 21.3287 12.8422 19.9556 14.2015 18.8765C15.5608 17.7975 17.147 17.0407 18.841 16.663C20.5349 16.2853 22.2924 16.2965 23.9813 16.6958C24.5563 16.8284 25.1602 16.7394 25.6725 16.4468C26.1849 16.1541 26.5682 15.6791 26.7461 15.1165C27.1571 13.8056 27.8777 12.613 28.8469 11.6394C29.8161 10.6659 31.0055 9.93993 32.3145 9.52305C33.6235 9.10616 35.0136 9.01056 36.3674 9.24434C37.7211 9.47811 38.9986 10.0344 40.092 10.8661C40.345 11.0573 40.6342 11.1953 40.9421 11.2715C41.2499 11.3478 41.57 11.3609 41.8831 11.3099C42.1961 11.2589 42.4956 11.145 42.7633 10.975C43.0311 10.8051 43.2616 10.5825 43.4409 10.3209C44.622 8.58347 46.2101 7.16128 48.0669 6.17832C49.9237 5.19537 51.9927 4.6815 54.0936 4.6815C56.1945 4.6815 58.2635 5.19537 60.1203 6.17832C61.977 7.16128 63.5652 8.58347 64.7463 10.3209C64.9256 10.5835 65.1565 10.8069 65.4248 10.9775C65.6931 11.1481 65.9933 11.2624 66.3071 11.3134C66.621 11.3644 66.9419 11.351 67.2505 11.2741C67.559 11.1972 67.8486 11.0584 68.1019 10.8661C69.1952 10.0344 70.4728 9.47811 71.8265 9.24434C73.1803 9.01056 74.5704 9.10616 75.8794 9.52305C77.1884 9.93993 78.3777 10.6659 79.347 11.6394C80.3162 12.613 81.0368 13.8056 81.4478 15.1165C81.6256 15.6788 82.0088 16.1536 82.5208 16.4462C83.0329 16.7389 83.6364 16.828 84.2112 16.6958C85.0653 16.4954 85.9393 16.392 86.8166 16.3877C89.8711 16.3906 92.7996 17.6052 94.9594 19.765C97.1193 21.9248 98.3339 24.8534 98.3367 27.9078C98.3367 28.0418 98.326 28.1637 98.3166 28.2922L98.3019 28.5494C98.2794 28.9524 98.3613 29.3544 98.5396 29.7165C98.718 30.0786 98.9867 30.3885 99.3199 30.6164C100.403 31.3503 101.324 32.2988 102.026 33.403C102.727 34.5073 103.195 35.7438 103.399 37.036C103.604 38.3282 103.541 39.6487 103.214 40.9156C102.888 42.1826 102.305 43.3691 101.502 44.4016C100.698 45.4341 99.6913 46.2908 98.5434 46.9185C97.3956 47.5462 96.131 47.9317 94.8282 48.051C93.5253 48.1702 92.2118 48.0209 90.969 47.612C89.7262 47.2032 88.5806 46.5436 87.603 45.6742C87.3682 45.467 87.0942 45.3091 86.7974 45.2096C86.5005 45.1101 86.1867 45.0711 85.8745 45.095C85.5623 45.1188 85.2581 45.205 84.9798 45.3484C84.7014 45.4919 84.4547 45.6896 84.2541 45.93C83.3063 47.0706 82.1063 47.9751 80.7488 48.5721C79.3913 49.169 77.9136 49.4421 76.4324 49.3698C74.9512 49.2974 73.5072 48.8815 72.2143 48.1551C70.9215 47.4286 69.8154 46.4114 68.9833 45.1839C68.7674 44.857 68.4713 44.591 68.1233 44.4111C67.7753 44.2312 67.3869 44.1436 66.9954 44.1565C66.6047 44.1648 66.2222 44.2706 65.8828 44.4643C65.5433 44.658 65.2577 44.9334 65.0517 45.2656C63.9041 47.1386 62.2943 48.6851 60.3769 49.7569C58.4596 50.8286 56.2989 51.3896 54.1023 51.386C52.1155 51.384 50.157 50.9146 48.3851 50.0156C48.0277 49.8368 47.6306 49.7524 47.2313 49.7702C46.8321 49.7881 46.4441 49.9078 46.1041 50.1178C45.7641 50.3279 45.4835 50.6214 45.2889 50.9704C45.0943 51.3194 44.9921 51.7124 44.9921 52.112V61.9094C44.9921 62.6539 44.8454 63.3911 44.5605 64.0789C44.2757 64.7666 43.8581 65.3916 43.3317 65.918C42.8053 66.4444 42.1803 66.862 41.4925 67.1469C40.8047 67.4318 40.0676 67.5784 39.3231 67.5784C38.5787 67.5784 37.8415 67.4318 37.1537 67.1469C36.4659 66.862 35.841 66.4444 35.3146 65.918C34.7882 65.3916 34.3706 64.7666 34.0857 64.0789C33.8008 63.3911 33.6542 62.6539 33.6542 61.9094L33.6448 51.7289C33.6444 51.1074 33.3973 50.5115 32.9577 50.0722C32.5181 49.6328 31.9221 49.386 31.3006 49.386C29.8963 49.3872 28.5091 49.0784 27.2379 48.4817C25.9667 47.885 24.8428 47.0151 23.9465 45.934C23.7458 45.6928 23.4987 45.4943 23.2198 45.3505C22.9409 45.2067 22.6359 45.1204 22.323 45.0968C22.264 45.0968 22.2037 45.0968 22.1448 45.0968C21.5728 45.0966 21.0206 45.3058 20.5923 45.6849C19.6119 46.539 18.4676 47.1841 17.2293 47.5808C15.9911 47.9775 14.6849 48.1174 13.3907 47.9919C12.0965 47.8664 10.8415 47.4783 9.70253 46.8511C8.56353 46.224 7.56444 45.371 6.76639 44.3445C5.96834 43.318 5.38811 42.1394 5.06119 40.8809C4.73427 39.6225 4.66753 38.3105 4.86506 37.0253C5.06259 35.7402 5.52024 34.5088 6.21 33.4066C6.89976 32.3044 7.80714 31.3545 8.87663 30.615ZM12.3219 52.6398C15.6655 53.0896 19.0605 52.3438 21.9077 50.534C23.8988 52.287 26.341 53.4471 28.9577 53.8829L28.9658 61.9108C28.9658 64.6577 30.057 67.2922 31.9994 69.2345C33.9417 71.1769 36.5762 72.2681 39.3231 72.2681C42.0701 72.2681 44.7045 71.1769 46.6469 69.2345C48.5893 67.2922 49.6805 64.6577 49.6805 61.9108V55.4957C51.1225 55.8802 52.6086 56.0743 54.101 56.0731C56.5687 56.0796 59.0097 55.5624 61.2628 54.5556C63.5158 53.5488 65.5295 52.0754 67.1709 50.2326C69.7534 52.6451 73.1402 54.0118 76.6738 54.0675C80.2074 54.1232 83.6356 52.8639 86.2929 50.534C89.1397 52.3447 92.535 53.0906 95.8787 52.6398C96.8496 52.5063 97.8038 52.2706 98.7252 51.9365V109.128C98.7203 109.218 98.7203 109.307 98.7252 109.396V129.222L95.083 133.508C93.4171 135.47 91.344 137.047 89.0076 138.127C86.6713 139.208 84.1277 139.767 81.5536 139.765H26.6457C24.0715 139.767 21.5277 139.209 19.1912 138.128C16.8547 137.048 14.7817 135.471 13.1163 133.508L9.47139 129.222V51.9352C10.3939 52.2703 11.3495 52.5065 12.3219 52.6398ZM95.7112 154.558H12.488C11.689 154.557 10.923 154.239 10.358 153.674C9.79301 153.109 9.47513 152.343 9.47406 151.544V136.451L9.5464 136.535C11.6513 139.016 14.2712 141.009 17.2242 142.375C20.1771 143.741 23.3921 144.448 26.6457 144.445H81.5549C84.8087 144.448 88.0239 143.741 90.977 142.375C93.9301 141.009 96.5503 139.016 98.6555 136.535L98.7252 136.452V151.544C98.7241 152.343 98.4062 153.109 97.8412 153.674C97.2762 154.239 96.5102 154.557 95.7112 154.558ZM140.255 83.4038C135.93 110.625 114.977 122.308 103.418 126.747V113.211C104.878 113.728 106.415 113.991 107.964 113.99C110.048 113.971 112.109 113.552 114.035 112.757C123.559 108.931 131.256 97.0015 133.644 82.3616C135.52 70.8844 132.596 63.2222 125.425 60.7949C123.034 60.0831 120.519 59.8821 118.046 60.2052C115.572 60.5283 113.193 61.3682 111.065 62.6703C107.922 64.5811 105.296 67.2342 103.418 70.3968V58.8767C111.294 52.7403 122.925 51.4355 130.92 55.9297C139.028 60.4949 142.346 70.2508 140.255 83.4038Z"
        fill="#EEB61C" />
    <path
        d="M77.5766 121.9C78.1983 121.9 78.7946 121.653 79.2342 121.213C79.6739 120.773 79.9208 120.177 79.9208 119.555V84.2021C79.9208 83.5804 79.6739 82.9841 79.2342 82.5445C78.7946 82.1049 78.1983 81.8579 77.5766 81.8579C76.9549 81.8579 76.3586 82.1049 75.919 82.5445C75.4794 82.9841 75.2324 83.5804 75.2324 84.2021V119.555C75.2324 120.177 75.4794 120.773 75.919 121.213C76.3586 121.653 76.9549 121.9 77.5766 121.9Z"
        fill="#EEB61C" />
    <path
        d="M30.6123 121.9C31.2339 121.899 31.8299 121.652 32.2695 121.213C32.709 120.773 32.9561 120.177 32.9565 119.555V84.2021C32.9565 83.5804 32.7095 82.9841 32.2699 82.5445C31.8302 82.1049 31.234 81.8579 30.6123 81.8579C29.9905 81.8579 29.3943 82.1049 28.9547 82.5445C28.515 82.9841 28.2681 83.5804 28.2681 84.2021V119.555C28.2681 120.177 28.515 120.773 28.9547 121.213C29.3943 121.653 29.9905 121.9 30.6123 121.9Z"
        fill="#EEB61C" />
    <path
        d="M54.0942 121.9C54.7159 121.9 55.3122 121.653 55.7518 121.213C56.1914 120.773 56.4384 120.177 56.4384 119.555V84.2021C56.4384 83.5804 56.1914 82.9841 55.7518 82.5445C55.3122 82.1049 54.7159 81.8579 54.0942 81.8579C53.4725 81.8579 52.8762 82.1049 52.4366 82.5445C51.997 82.9841 51.75 83.5804 51.75 84.2021V119.555C51.75 120.177 51.997 120.773 52.4366 121.213C52.8762 121.653 53.4725 121.9 54.0942 121.9Z"
        fill="#EEB61C" />
</svg>