<svg id="Layer_1" data-name="Layer 1" xmlns="http://www.w3.org/2000/svg" viewBox="0 0 151.2 218.52"><path d="M128.77,109.24c-.08,1.3-.15,2.42-.21,3.43-.35,5.35-.58,7.22-.73,13-.22,9.24.23,11.4-.62,16.69a42.74,42.74,0,0,1-4.94,15.46,31.16,31.16,0,0,1-7.38,8.39c-.62.53-1.29,1.07-2,1.62-.92.73-1.9,1.49-3,2.29s-2.4,1.82-3.75,2.84c-8.92,6.69-13.36,10-17.63,11.44a37,37,0,0,1-10.14,1.82,44.15,44.15,0,0,1-16.13-2.44c-5.6-1.91-9.12-4.41-15.13-8.66l-1.08-.75-.81-.58-.21-.15c-1.85-1.33-3.58-2.6-5.18-3.93a34.88,34.88,0,0,1-8.19-9.42,50.53,50.53,0,0,1-4.94-12.67,76.82,76.82,0,0,1-1.85-10.51c-1.13-8.63-1.61-15.49-1.86-19.47-.21-3.44-.39-6.28-.54-8.7-.27-4.55-.38-7.64-.38-10.47.05-14,.07-22.37,4.32-31.82a42.66,42.66,0,0,1,13-16.69c3.41-2.55,11.31-8.44,18.54-6.19.33.11.29.11,8.67,5.57,4.77,3.1,7.2,4.67,9.89,5.56a21.71,21.71,0,0,0,8,1.24c5-.28,8-2.58,10.83-4,8.4-4.37,20.76-4.3,26.88.62,3.56,2.84,4.38,7.6,5.88,17C130.19,82.47,129.65,93,128.77,109.24Z" fill="#eeb94f"/><path d="M139.37,92.76h-2.06c-2.5.1-5.29,7.62-5.77,9.27-1.35,4.65-2.29,8.11-3,10.64.06-1,.13-2.13.21-3.43.88-16.2,1.42-26.77-.62-39.55-1.5-9.4-2.32-14.16-5.88-17-6.12-4.92-18.48-5-26.88-.62-2.79,1.44-5.85,3.74-10.83,4a21.71,21.71,0,0,1-8-1.24c-2.69-.89-5.12-2.46-9.89-5.56-8.38-5.46-8.34-5.46-8.67-5.57-7.23-2.25-15.13,3.64-18.54,6.19a42.66,42.66,0,0,0-13,16.69c-4.25,9.45-4.27,17.83-4.32,31.82,0,2.83.11,5.92.38,10.47a52.79,52.79,0,0,1-2.85-7.37c-1.06-3.54-1.77-7.65-4.34-8.35a13.9,13.9,0,0,0-3.39-.31c-.84-.76-.34-2-.61-4.63a22.81,22.81,0,0,0-.93-4A104.58,104.58,0,0,1,7.93,66.6a61.73,61.73,0,0,1,6.49-29.37,32.17,32.17,0,0,1,13-15.14c11.83-8,16.83-3.53,14.83-6.49-2.58-3.81-1.4-6.36-2-7.73-.46-1.11-1.09-2.43-.62-2.88s2,.3,2.37.5c4.21,2.13,14.17,2.36,24.21,2.59,11.27.26,10-.92,16.27-.41,21.73,1.74,35.23,15,36.27,22.46.15,1,12.08-1.48,21.23,13.39C149.29,58.63,141,91.86,139.37,92.76Z" fill="#eeb94f"/><path d="M117.6,203.47c-3.35,16.68-73.29,14.78-76.95-5.42-.61-3.41,1.18-4.39,3-13.74a78.56,78.56,0,0,0,1.39-10.72l.21.15.81.58,1.08.75c6,4.25,9.53,6.75,15.13,8.66a44.15,44.15,0,0,0,16.13,2.44,37,37,0,0,0,10.14-1.82c4.27-1.42,8.71-4.75,17.63-11.44,1.35-1,2.6-1.95,3.75-2.84a41.45,41.45,0,0,0,.72,15C113.33,196.79,118.54,198.76,117.6,203.47Z" fill="#eeb94f"/></svg>